<svg version="1.1" id="Layer_1" xmlns="http://www.w3.org/2000/svg" xmlns:xlink="http://www.w3.org/1999/xlink" x="0px" y="0px"
	 width="100%" viewBox="0 0 464 464" enable-background="new 0 0 464 464" xml:space="preserve">
<path fill="#000000" opacity="1.000000" stroke="none" 
	d="
M379.572296,25.230659 
	C399.445831,36.267616 409.199432,53.072205 409.222137,75.236931 
	C409.333771,184.206223 409.303436,293.175690 409.261902,402.145111 
	C409.250305,432.520142 385.361511,456.372528 355.056396,456.383453 
	C278.577850,456.411011 202.099304,456.416443 125.620789,456.377014 
	C93.401489,456.360413 66.749512,429.724274 66.743088,397.557617 
	C66.721817,291.087494 66.716286,184.617371 66.762680,78.147285 
	C66.775131,49.587677 86.039185,25.934502 113.756851,20.232567 
	C115.854919,19.800962 118.050095,19.686083 120.200233,19.685282 
	C199.344666,19.655834 278.489105,19.666317 357.633545,19.640242 
	C365.313324,19.637712 372.367523,21.935310 379.572296,25.230659 
M370.647125,276.880798 
	C336.698425,251.284546 299.997955,230.409500 261.105347,213.363571 
	C207.586899,189.907410 151.714493,174.720978 93.956703,166.275375 
	C87.110481,165.274277 87.050087,165.320724 87.050079,171.115097 
	C87.049980,246.757828 87.058060,322.400574 87.105736,398.043274 
	C87.107819,401.353088 87.098953,404.670746 88.059975,407.943878 
	C92.773697,423.998291 109.374458,436.631012 126.216881,436.649628 
	C170.036392,436.698090 213.855988,436.664490 257.675537,436.663879 
	C289.665497,436.663422 321.655670,436.740662 353.645294,436.634857 
	C373.751129,436.568329 388.728180,422.660919 388.870697,403.479553 
	C389.138031,367.492798 388.988098,331.503052 389.062714,295.514648 
	C389.068726,292.620300 388.172821,290.406494 385.824890,288.634460 
	C380.907074,284.922760 376.084900,281.084259 370.647125,276.880798 
M386.795624,60.753967 
	C380.671265,46.762878 369.691925,39.503284 354.703125,39.463066 
	C277.744812,39.256573 200.785614,39.326035 123.826805,39.382057 
	C106.181694,39.394901 87.816010,56.507355 87.351822,74.146347 
	C86.769234,96.284882 87.142235,118.448044 87.038719,140.600281 
	C87.023628,143.830505 88.199951,145.305008 91.594894,145.752838 
	C108.908829,148.036697 126.110603,151.039642 143.177887,154.743362 
	C230.501999,173.693451 311.426239,207.099564 383.210510,261.130310 
	C384.733856,262.276917 386.183441,263.813385 388.651459,263.607910 
	C388.758820,262.245514 388.950287,260.948181 388.950500,259.650818 
	C388.961151,197.683990 388.956604,135.717178 388.948181,73.750351 
	C388.947601,69.571388 388.697754,65.424355 386.795624,60.753967 
z"/>
<path fill="#000000" opacity="1.000000" stroke="none" 
	d="
M182.760681,240.859573 
	C184.309021,236.400787 185.753281,232.322632 187.173416,228.236069 
	C189.135483,222.590073 192.884354,218.762161 198.857315,217.844040 
	C205.168625,216.873871 210.285080,219.148376 213.851639,224.619354 
	C221.947021,237.037445 230.150925,249.385880 238.122803,261.882507 
	C239.930145,264.715698 242.000610,265.890625 245.345596,266.153473 
	C257.163544,267.082062 269.000641,266.352264 280.815002,266.892822 
	C284.472198,267.060181 288.147766,267.142487 291.775085,267.587982 
	C303.982880,269.087219 309.260193,280.745056 302.105560,290.882111 
	C297.695862,297.129944 292.645752,302.927826 287.844940,308.897034 
	C283.044220,314.866119 278.256012,320.847260 273.339600,326.720367 
	C271.305878,329.149750 270.970795,331.516602 271.907318,334.553650 
	C276.171051,348.380676 280.242188,362.267181 284.369476,376.136200 
	C286.187286,382.244568 286.103973,388.022308 281.102692,392.768982 
	C276.201935,397.420288 270.629639,397.933441 264.457336,395.535706 
	C250.803452,390.231598 237.068451,385.135620 223.434235,379.782349 
	C220.335800,378.565765 217.922226,378.745850 215.156708,380.696136 
	C203.316055,389.046539 191.293594,397.138885 179.435516,405.465057 
	C174.100098,409.211334 168.662567,410.611694 162.631943,407.410522 
	C156.620056,404.219269 154.456268,398.908478 154.742050,392.431458 
	C155.387466,377.803223 156.022537,363.172943 156.896454,348.557526 
	C157.123749,344.756348 155.763550,342.424805 152.788696,340.212097 
	C141.295807,331.663635 129.972855,322.886688 118.589760,314.190735 
	C113.580284,310.363831 110.746880,305.461426 112.035301,299.040894 
	C113.348694,292.496002 117.662239,288.879028 124.108856,287.200989 
	C138.276031,283.513275 152.347183,279.457184 166.508652,275.746552 
	C169.591721,274.938690 171.328247,273.457275 172.352020,270.427460 
	C175.654587,260.653625 179.196320,250.960617 182.760681,240.859573 
M176.373932,359.869354 
	C176.373932,367.257019 176.373932,374.644714 176.373932,382.233582 
	C177.957108,382.283813 179.172577,381.067902 180.500854,380.154968 
	C189.145370,374.213562 197.921799,368.450836 206.371918,362.244141 
	C212.909363,357.442352 219.456436,356.538849 226.974747,359.658356 
	C236.808960,363.738800 246.822540,367.389404 256.785980,371.153381 
	C258.364868,371.749878 259.934998,372.956024 262.172943,372.067383 
	C258.534332,359.757324 255.193405,347.575226 251.285629,335.577728 
	C249.091980,328.842834 250.224350,323.248932 254.619492,317.940308 
	C261.096069,310.117645 267.470428,302.210114 273.860931,294.316589 
	C275.546082,292.235138 277.130737,290.072357 278.761536,287.946899 
	C278.557312,287.384644 278.353119,286.822357 278.148895,286.260071 
	C265.510132,286.260071 252.871246,286.230530 240.232605,286.272034 
	C233.534149,286.294037 228.415649,283.653625 224.757034,277.938782 
	C218.743347,268.545227 212.584869,259.243835 206.427963,249.942993 
	C205.464645,248.487762 204.870972,246.612717 202.979462,245.983170 
	C201.579254,246.788513 201.476624,248.181076 201.042801,249.410934 
	C197.556595,259.294495 193.636414,269.049164 190.678726,279.087738 
	C188.073746,287.929291 182.821198,292.615112 173.843506,294.594238 
	C162.388596,297.119537 151.160461,300.673553 138.553757,304.135895 
	C146.591492,310.294403 153.716995,315.642334 160.722214,321.143372 
	C178.131668,334.814667 178.867996,331.152130 176.373932,359.869354 
z"/>
<path fill="#000000" opacity="1.000000" stroke="none" 
	d="
M264.422424,88.411453 
	C262.406097,83.490219 262.549500,79.144859 266.205658,75.570267 
	C269.891449,71.966652 274.255402,72.261841 278.784973,73.959053 
	C285.799896,76.587517 292.913635,78.957985 299.886536,81.690277 
	C302.883331,82.864548 305.184967,82.491333 307.717102,80.565460 
	C313.813843,75.928391 320.112305,71.557556 326.271362,67.000877 
	C330.016663,64.229973 333.880493,62.950485 338.343933,65.227150 
	C342.902954,67.552597 343.746582,71.675552 343.685944,76.205330 
	C343.592346,83.200607 343.717285,90.216606 343.195251,97.182289 
	C342.826447,102.103432 344.456909,105.231873 348.594238,107.897079 
	C354.465424,111.679184 359.896179,116.138702 365.599396,120.190102 
	C369.350128,122.854523 371.195770,126.236481 370.420959,130.879425 
	C369.626801,135.638229 366.325775,137.919861 362.096161,139.183197 
	C354.921875,141.326065 347.750153,143.487900 340.520447,145.429977 
	C337.173096,146.329163 335.036041,147.990707 333.995239,151.437988 
	C331.831787,158.603638 329.381500,165.682922 327.032471,172.792206 
	C325.611633,177.092285 323.563202,180.721985 318.452942,181.451782 
	C313.274231,182.191376 309.945099,179.707886 307.235931,175.651215 
	C303.257294,169.693588 298.902252,163.976608 295.136536,157.891647 
	C292.912994,154.298660 290.222656,153.063538 286.116791,153.220169 
	C278.961670,153.493118 271.788055,153.289795 264.622223,153.268066 
	C260.049744,153.254196 256.009552,152.169586 253.779343,147.641281 
	C251.479080,142.970734 252.925613,138.977264 255.925720,135.171051 
	C260.565918,129.284027 264.989655,123.222450 269.744904,117.431747 
	C271.906738,114.799156 272.235199,112.426208 271.099854,109.235863 
	C268.701660,102.496994 266.711487,95.612907 264.422424,88.411453 
M325.620117,128.864700 
	C329.293396,127.316826 333.642242,127.510429 338.132629,123.957634 
	C323.714355,119.004028 320.505035,108.495186 322.598175,94.696678 
	C312.596375,105.297768 301.875854,106.664413 289.701202,98.707802 
	C290.096497,105.966881 294.121338,111.021980 293.448334,116.946770 
	C292.730896,123.263351 286.587555,126.526443 283.979523,133.280960 
	C297.784149,130.457123 307.527863,135.228989 312.682159,149.221466 
	C315.215851,144.740799 316.053650,141.396332 317.078003,138.120575 
	C318.367157,133.997940 320.325745,130.419937 325.620117,128.864700 
z"/>
</svg>